<svg xmlns="http://www.w3.org/2000/svg" xmlns:xlink="http://www.w3.org/1999/xlink" width="194" height="194" viewBox="0 0 194 194">
  <defs>
    <clipPath id="clip-path">
      <path id="Path_91" data-name="Path 91" d="M25.56,72.668A6.644,6.644,0,0,1,18.9,66.322a6.439,6.439,0,0,1,6.663-6.345,6.439,6.439,0,0,1,6.663,6.345,6.644,6.644,0,0,1-6.663,6.345Zm81.855-34.582c-.635-5.076-3.807-9.2-7.932-12.373L97.9,24.443,96.628,26.03c-2.538,2.855-3.49,7.932-3.173,11.739A17.073,17.073,0,0,0,96.31,45.7c-1.269.635-2.855,1.269-4.124,1.9a26.722,26.722,0,0,1-8.566,1.269H1.448l-.317,1.9A35.694,35.694,0,0,0,3.986,68.861l1.269,2.221V71.4c7.614,12.691,21.257,18.4,36.168,18.4,28.554,0,52.032-12.373,63.136-39.024,7.3.317,14.594-1.586,18.084-8.566l.952-1.586-1.586-.952c-4.124-2.538-9.835-2.855-14.594-1.586ZM66.487,33.009H54.114V45.383H66.487Zm0-15.546H54.114V29.837H66.487Zm0-15.863H54.114V13.973H66.487V1.6ZM81.716,33.009H69.343V45.383H81.716Zm-46,0H23.339V45.383H35.712V33.009Zm15.546,0H38.885V45.383H51.259Zm-30.775,0H8.11V45.383H20.484V33.009ZM51.259,17.463H38.885V29.837H51.259Zm-15.546,0H23.339V29.837H35.712V17.463Z" transform="translate(-0.94 -1.6)" fill="#fff"/>
    </clipPath>
  </defs>
  <g id="docker" transform="translate(0.422)">
    <circle id="Ellipse_13" data-name="Ellipse 13" cx="97" cy="97" r="97" transform="translate(-0.422)" fill="#1d91b4"/>
    <g id="Group_78" data-name="Group 78" transform="translate(36 53)" clip-path="url(#clip-path)">
      <path id="SVGID_3_" d="M-48.8-21H3995.718V459.342H-48.8Z" transform="translate(-109.009 -50.702)" fill="#fff"/>
    </g>
  </g>
</svg>
