<svg xmlns="http://www.w3.org/2000/svg" width="194" height="194" viewBox="0 0 194 194">
  <g id="git" transform="translate(-338 -821.001)">
    <circle id="Ellipse_13" data-name="Ellipse 13" cx="97" cy="97" r="97" transform="translate(338 821.001)" fill="#de4c36"/>
    <path id="Path_59" data-name="Path 59" d="M149.258,31.981c-4.79,0-8.357,2.352-8.357,8.012,0,4.265,2.351,7.226,8.1,7.226,4.872,0,8.182-2.871,8.182-7.4,0-5.135-2.961-7.835-7.923-7.835Zm-9.577,39.968c-1.134,1.391-2.264,2.87-2.264,4.613,0,3.481,4.438,4.528,10.535,4.528,5.049,0,11.928-.354,11.928-5.049,0-2.791-3.309-2.963-7.491-3.225l-12.709-.867Zm25.771-39.7a13.81,13.81,0,0,1,3.221,8.794c0,9.664-7.575,15.323-18.543,15.323a27.682,27.682,0,0,1-6.879-.782l-2.875,4.613,8.532.522c15.064.96,23.941,1.4,23.941,12.972,0,10.015-8.791,15.671-23.941,15.671-15.758,0-21.766-4.005-21.766-10.883,0-3.918,1.742-6,4.789-8.882A5.8,5.8,0,0,1,128.1,63.85a7.807,7.807,0,0,1,2.526-5.313c1.566-1.652,3.307-3.308,5.4-5.223-4.265-2.09-7.488-6.617-7.488-13.061,0-10.01,6.618-16.886,19.936-16.886a29.833,29.833,0,0,1,8.012.87h16.979v7.4l-8.011.61Zm23.329-15.822c-4.964,0-7.837-2.876-7.837-7.84s2.872-7.66,7.837-7.66c5.049,0,7.923,2.7,7.923,7.66S193.832,16.423,188.782,16.423ZM177.548,68.745V61.87l4.442-.608c1.22-.175,1.392-.436,1.392-1.744v-25.6c0-.955-.26-1.568-1.134-1.826l-4.7-1.656.957-7.05h18.024v36.13c0,1.395.084,1.569,1.394,1.745l4.44.608v6.874Zm59.246-3.375A34.817,34.817,0,0,1,222.6,68.851c-10.361,0-14.277-4.175-14.277-14.018V32.024c0-.522,0-.87-.7-.87H201.53V23.4c7.664-.873,10.709-4.7,11.667-14.194h8.272V21.576c0,.608,0,.87.7.87h12.275v8.706H221.469V51.96c0,5.137,1.22,7.138,5.92,7.138a20.72,20.72,0,0,0,7.052-1.392l2.354,7.663" transform="translate(253.236 872.526)" fill="#2f2707"/>
  </g>
</svg>
