<svg xmlns="http://www.w3.org/2000/svg" width="194" height="194" viewBox="0 0 194 194">
  <g id="grapgql" transform="translate(-295 -654)">
    <circle id="Ellipse_13" data-name="Ellipse 13" cx="97" cy="97" r="97" transform="translate(295 654)" fill="#e535ab"/>
    <g id="graphql-logo-2" transform="translate(310.26 683.8)">
      <path id="Path_63" data-name="Path 63" d="M47.686,108.282l-4.594-2.653L94.275,16.98l4.594,2.653Z" transform="translate(-11.806 -8.696)" fill="#fff"/>
      <path id="Path_64" data-name="Path 64" d="M39.8,272.2H142.166v5.305H39.8Z" transform="translate(-9.567 -182.349)" fill="#fff"/>
      <path id="Path_65" data-name="Path 65" d="M97.34,137.276l-51.2-29.563,2.653-4.594,51.2,29.563ZM141.82,60.228l-51.2-29.563,2.653-4.594,51.2,29.563Z" transform="translate(-13.879 -14.881)" fill="#fff"/>
      <path id="Path_66" data-name="Path 66" d="M48.835,60.165l-2.653-4.594,51.2-29.563,2.653,4.594Z" transform="translate(-13.909 -14.838)" fill="#fff"/>
      <path id="Path_67" data-name="Path 67" d="M145.2,108.285,94.021,19.636l4.594-2.653L149.8,105.632ZM52.5,45.912h5.305v59.125H52.5Z" transform="translate(-18.208 -8.698)" fill="#fff"/>
      <path id="Path_68" data-name="Path 68" d="M330.9,107.5h5.305v59.125H330.9Z" transform="translate(-207.632 -70.286)" fill="#fff"/>
      <path id="Path_69" data-name="Path 69" d="M198.589,303.717l-2.317-4.013L240.8,273.992l2.317,4.013Z" transform="translate(-116.031 -183.568)" fill="#fff"/>
      <path id="Path_70" data-name="Path 70" d="M135.6,98.065a11.161,11.161,0,1,1-4.091-15.245A11.171,11.171,0,0,1,135.6,98.065M46.565,46.642A11.161,11.161,0,1,1,42.474,31.4a11.171,11.171,0,0,1,4.091,15.245m-19.3,51.423a11.161,11.161,0,1,1,15.245,4.091,11.178,11.178,0,0,1-15.245-4.091M116.3,46.642a11.161,11.161,0,1,1,15.245,4.091A11.179,11.179,0,0,1,116.3,46.642M81.433,129.353A11.154,11.154,0,1,1,92.586,118.2a11.144,11.144,0,0,1-11.154,11.154m0-102.846A11.154,11.154,0,1,1,92.586,15.354,11.144,11.144,0,0,1,81.433,26.508" transform="translate(0)" fill="#fff"/>
    </g>
  </g>
</svg>
