<svg xmlns="http://www.w3.org/2000/svg" viewBox="0 0 194 194"><path fill="#336791" d="M97 0A97 97 0 110 97 97 97 0 0197 0z" data-name="Ellipse 13"/><path fill="#fff" d="M119.84 46a45.34 45.34 0 00-12.33 1.8l-.28.09a48.86 48.86 0 00-7.65-.74 25.56 25.56 0 00-13.45 3.32 51.93 51.93 0 00-18.92-2.97c-5.48.3-11.46 1.96-15.89 6.64s-6.75 11.91-6.26 21.76a87.9 87.9 0 002.2 12.88 151.67 151.67 0 005.33 18.57c2.25 6.13 4.72 11.63 8.57 15.37a10.54 10.54 0 007.7 3.32 9.87 9.87 0 005.89-2.47 7.06 7.06 0 002.53 2.02 12.28 12.28 0 003.04 1.2 21.14 21.14 0 008.71.44 16.47 16.47 0 003.92-1.21c.05 1.48.1 2.92.17 4.38.18 4.64.3 8.92 1.69 12.67a16.52 16.52 0 003.25 6.56c2.42 2.8 7.15 4.53 12.54 3.38 3.8-.81 8.64-2.28 11.85-6.85 3.18-4.52 4.6-11 4.89-21.52.07-.57.16-1.05.25-1.5l.75.07h.1a26.57 26.57 0 0012.13-2.1c3.26-1.5 5.72-3.03 7.52-5.74a5.74 5.74 0 001.07-2.88 5.84 5.84 0 00-2-4.58c-2.66-2.03-4.34-1.26-6.13-.89a28.05 28.05 0 01-5.38.66 102.92 102.92 0 0011-26.15 57 57 0 002.02-13.19c.05-3.9-.26-7.34-2.6-10.33-7.3-9.33-17.56-11.9-25.5-12h-.73zm-.21 2.86c7.5-.07 17.1 2.04 23.98 10.84 1.55 1.98 2.01 4.87 1.96 8.43a55.05 55.05 0 01-1.92 12.48 100.31 100.31 0 01-12.96 29.03 3.38 3.38 0 00.7.38c1.3.54 4.26 1 10.16-.21 1.48-.32 2.57-.53 3.7.33a2.33 2.33 0 01.82 1.9 3.15 3.15 0 01-.58 1.5 15.26 15.26 0 01-6.28 4.68 24.7 24.7 0 01-9.47 1.85 14.5 14.5 0 01-4.4-.51l-.09-.03c-.49 4.74-1.62 14.1-2.36 18.38-.59 3.44-1.62 6.18-3.6 8.23s-4.75 3.28-8.5 4.09c-4.64 1-8.03-.08-10.21-1.92a13.96 13.96 0 01-3.78-5.75 16.82 16.82 0 01-.83-4.14 90.7 90.7 0 01-.46-6.42q-.21-5.64-.14-11.29a13.7 13.7 0 01-6.94 3.4 18.32 18.32 0 01-7.48-.4 10.18 10.18 0 01-2.32-.9 4.3 4.3 0 01-1.97-1.77 2.5 2.5 0 01-.26-1.7 2.73 2.73 0 01.98-1.48 8.64 8.64 0 013.82-1.5c3.22-.65 4.34-1.1 5.03-1.65a27.5 27.5 0 002.4-2.78l-.02-.18a13.24 13.24 0 01-5.95-1.6c-.67.7-4.1 4.33-8.27 9.36-1.76 2.1-3.7 3.3-5.75 3.4a7.52 7.52 0 01-5.48-2.47c-3.14-3.06-5.65-8.32-7.84-14.26a149.02 149.02 0 01-5.22-18.2 89.59 89.59 0 01-2.12-12.38c-.47-9.31 1.71-15.6 5.45-19.55s8.86-5.46 13.86-5.75c8.97-.51 17.49 2.62 19.2 3.29a21.88 21.88 0 0112.95-3.57 33.06 33.06 0 017.52.97l.09-.04a30.66 30.66 0 013.3-.95 43.07 43.07 0 019.27-1.12zm.68 3h-.66a39.1 39.1 0 00-7.62.86 33.52 33.52 0 0112.75 10.07 37.76 37.76 0 015.07 8.59 20.57 20.57 0 011 2.95 6.13 6.13 0 01.19 1.06 1.97 1.97 0 01-.06.64l-.03.06c.14 3.92-.83 6.57-.95 10.31-.09 2.72.6 5.9.78 9.38a17.75 17.75 0 01-2.36 10.37l.51.65a97.75 97.75 0 0011.81-26.95 52.67 52.67 0 001.83-11.77c.04-3.23-.56-5.56-1.32-6.54-6-7.67-14.13-9.63-20.94-9.68zm-21.43 1.15a17.97 17.97 0 00-11.96 4 22.15 22.15 0 00-6.26 9.32 39.57 39.57 0 00-2.3 10.8l.05-.03a23.18 23.18 0 015.94-2.31 11.75 11.75 0 016.86.17 7.78 7.78 0 014.67 5.89c3.15 14.57-.98 19.99-2.5 24.08a43 43 0 00-1.48 4.53 4.4 4.4 0 01.58-.11 4.9 4.9 0 012.41.48 5.88 5.88 0 013.15 3.49 6.14 6.14 0 01.32 1.27 1.5 1.5 0 01.09.57q-.25 8.36.06 16.72c.1 2.41.25 4.53.44 6.2a17.09 17.09 0 00.64 3.37 11.37 11.37 0 002.93 4.58c1.5 1.27 3.68 2.12 7.64 1.27 3.44-.73 5.56-1.76 6.98-3.23s2.26-3.52 2.8-6.66c.8-4.7 2.43-18.32 2.63-20.88a8.57 8.57 0 01.82-4.55 5.3 5.3 0 012.47-2.26 8.4 8.4 0 011.15-.42q-.52-.74-1.1-1.45a19.94 19.94 0 01-2.97-4.92q-.54-1.1-1.15-2.16c-.6-1.07-1.35-2.42-2.14-3.92a48.73 48.73 0 01-4.17-10.25c-.9-3.56-1.02-7.25 1.25-9.85 2.02-2.3 5.55-3.26 10.86-2.73-.16-.47-.25-.86-.52-1.48a34.97 34.97 0 00-4.65-7.9 28.93 28.93 0 00-23.03-11.63h-.51zm-29.72.23a31 31 0 00-1.7.05c-4.52.26-8.79 1.57-11.85 4.8s-5.07 8.56-4.63 17.35a94.3 94.3 0 002.05 11.86 147.23 147.23 0 005.11 17.81c2.12 5.76 4.68 10.77 7.12 13.14a4.58 4.58 0 003.25 1.63c.97-.05 2.14-.6 3.57-2.32q3.9-4.7 8.1-9.16a15.64 15.64 0 01-5.22-14.1 55.6 55.6 0 00.47-8.83c-.06-2.38-.23-3.97-.23-4.96v-.13a44.26 44.26 0 012.65-15.1 25.84 25.84 0 015.9-9.45 50.7 50.7 0 00-12.9-2.55q-.84-.04-1.7-.04zm55.47 23.63c-3.04.04-4.74.82-5.64 1.85-1.26 1.45-1.39 4-.6 7.14a46.69 46.69 0 003.93 9.59c.76 1.46 1.5 2.77 2.09 3.84a27.05 27.05 0 011.3 2.49 14.38 14.38 0 00.8 1.62 15.05 15.05 0 001.27-7.46c-.16-3.15-.88-6.37-.78-9.62.12-3.81.88-6.29.94-9.23a25.92 25.92 0 00-3.31-.22zm-36.84.52a12.62 12.62 0 00-2.76.33 20.87 20.87 0 00-5.15 2 10.81 10.81 0 00-1.56 1.03l-.1.08c.02.66.15 2.24.2 4.57a58.67 58.67 0 01-.5 9.33c-1.06 7.65 4.49 13.98 11.01 13.99a43.76 43.76 0 011.63-4.84c1.82-4.9 5.4-8.47 2.38-22.4-.49-2.28-1.46-3.2-2.8-3.72a6.6 6.6 0 00-2.35-.38zm35.42.9h.22a3.93 3.93 0 01.8.1 1.84 1.84 0 01.63.25.73.73 0 01.33.5v.03a1.07 1.07 0 01-.15.6 2.99 2.99 0 01-.5.67 3.03 3.03 0 01-1.72.95 2.64 2.64 0 01-1.84-.46 2.72 2.72 0 01-.58-.53 1.16 1.16 0 01-.28-.57.76.76 0 01.19-.57 1.72 1.72 0 01.52-.4 4.99 4.99 0 011.67-.52 5.78 5.78 0 01.71-.06zm-34.99.76a5.4 5.4 0 01.75.06 4.9 4.9 0 011.76.54 2 2 0 01.6.48 1 1 0 01.24.76 1.35 1.35 0 01-.34.69 2.9 2.9 0 01-.64.58 2.86 2.86 0 01-2 .5 3.26 3.26 0 01-1.88-1.01 3.18 3.18 0 01-.53-.74 1.25 1.25 0 01-.18-.79 1.14 1.14 0 01.86-.87 3.87 3.87 0 011.37-.18zm40.54 32.85h-.01c-.66.24-1.2.34-1.66.54a2.02 2.02 0 00-1.07.95 5.75 5.75 0 00-.45 2.98 2.28 2.28 0 00.66.32 12.48 12.48 0 003.48.36 23.32 23.32 0 008.23-1.57 17.67 17.67 0 004.22-2.75c-6.23 1.29-9.75.95-11.91.06a5.88 5.88 0 01-1.49-.9zm-35.93.42h-.1c-.23.02-.58.1-1.24.84-1.56 1.75-2.1 2.84-3.4 3.87s-2.94 1.56-6.28 2.25a8.58 8.58 0 00-2.06.64 1.16 1.16 0 00.31.24 7.46 7.46 0 001.62.63 15.61 15.61 0 006.25.36 10.68 10.68 0 007.19-4.65 2.3 2.3 0 00.1-2.14 3.32 3.32 0 00-1.48-1.76 2.92 2.92 0 00-.91-.27z"/></svg>