<svg xmlns="http://www.w3.org/2000/svg" width="194" height="194" viewBox="0 0 194 194">
  <g id="scss" transform="translate(-332 -540.001)">
    <circle id="Ellipse_8" data-name="Ellipse 8" cx="97" cy="97" r="97" transform="translate(332 540.001)" fill="#cf649a"/>
    <path id="sass" d="M110.111,55.354a26.38,26.38,0,0,0-11.605,2.7c-1.2-2.376-2.4-4.452-2.6-6A16.6,16.6,0,0,1,95.68,47a40.484,40.484,0,0,1,1.525-5.453c-.025-.225-.275-1.326-2.851-1.351s-4.8.5-5.052,1.176A28.726,28.726,0,0,0,88.227,45.2c-.45,2.351-5.152,10.68-7.828,15.057a15.361,15.361,0,0,1-1.776-4.4A16.6,16.6,0,0,1,78.4,50.8a40.5,40.5,0,0,1,1.526-5.452c-.025-.225-.275-1.326-2.851-1.351s-4.8.5-5.052,1.176S71.495,47.451,70.944,49c-.525,1.551-6.778,15.457-8.4,19.083-.825,1.851-1.55,3.326-2.076,4.327s-.025.075-.075.175c-.45.85-.7,1.326-.7,1.326v.025c-.35.625-.725,1.225-.9,1.225a8.341,8.341,0,0,1,.05-3.976c.925-4.827,3.176-12.355,3.152-12.63,0-.125.425-1.451-1.451-2.126a2.279,2.279,0,0,0-2.626.45c-.15,0-.275.4-.275.4S59.664,48.8,53.761,48.8c-3.7,0-8.8,4.027-11.33,7.7-1.6.875-5,2.726-8.6,4.7-1.376.75-2.8,1.551-4.152,2.276l-.275-.3C22.248,55.555,9.017,50.152,9.567,39.9c.2-3.727,1.5-13.556,25.411-25.461C54.562,4.682,70.244,7.359,72.97,13.311c3.877,8.5-8.379,24.311-28.737,26.587-7.753.875-11.83-2.126-12.856-3.251-1.075-1.176-1.226-1.226-1.626-1-.65.35-.25,1.4,0,2.026.6,1.576,3.1,4.377,7.353,5.778,3.726,1.226,12.831,1.9,23.835-2.351C73.27,36.321,82.9,23.065,80.073,11.986,77.2.706,58.489-3,40.806,3.282c-10.53,3.752-21.935,9.6-30.138,17.283C.914,29.668-.637,37.622.013,40.923,2.29,52.7,18.521,60.382,25.024,66.059c-.325.175-.625.35-.9.5-3.251,1.6-15.632,8.079-18.733,14.931-3.5,7.753.55,13.331,3.251,14.081C17,97.9,25.549,93.721,30.176,86.843c4.6-6.878,4.052-15.807,1.926-19.884l-.075-.15,2.551-1.5c1.651-.975,3.277-1.876,4.7-2.651a31.141,31.141,0,0,0-1.675,8.5c-.35,4.4,1.451,10.1,3.827,12.355a4.234,4.234,0,0,0,3.076,1c2.751,0,4-2.276,5.377-5,1.7-3.326,3.2-7.178,3.2-7.178s-1.876,10.43,3.251,10.43c1.876,0,3.752-2.426,4.6-3.677v.025s.05-.075.15-.25q.157-.233.3-.475v-.05c.75-1.3,2.426-4.277,4.927-9.2,3.226-6.353,6.328-14.306,6.328-14.306a45.651,45.651,0,0,0,1.226,5.152,49.3,49.3,0,0,0,2.676,6c-.75,1.05-1.2,1.651-1.2,1.651l.025.025c-.6.8-1.276,1.651-1.976,2.5-2.551,3.051-5.6,6.528-6,7.529a2.061,2.061,0,0,0,.55,2.751,5.007,5.007,0,0,0,3.151.5,14.038,14.038,0,0,0,4.7-1.076,16.285,16.285,0,0,0,4.052-2.126,9.02,9.02,0,0,0,3.877-7.978,16.042,16.042,0,0,0-1.476-5.627c.225-.325.45-.651.675-1a105.577,105.577,0,0,0,7-12.13,45.651,45.651,0,0,0,1.226,5.152,36.121,36.121,0,0,0,2.276,5.152A22.235,22.235,0,0,0,86.6,70.137c-1.476,4.252-.325,6.178,1.851,6.628a6.658,6.658,0,0,0,3.426-.7,15.527,15.527,0,0,0,4.327-2.226c2.5-1.851,4.9-4.427,4.777-7.9a15.151,15.151,0,0,0-1.075-4.677,24.366,24.366,0,0,1,12.405-1.426c11.13,1.3,13.331,8.254,12.906,11.155a7.471,7.471,0,0,1-3.527,5c-.775.475-1.025.651-.95,1,.1.525.45.5,1.125.4a8.658,8.658,0,0,0,6.053-7.728c.3-6.879-6.228-14.382-17.808-14.307ZM24.274,84.292c-3.677,4.027-8.854,5.552-11.055,4.252-2.376-1.376-1.451-7.3,3.076-11.58a58.849,58.849,0,0,1,8.679-6.478c.525-.325,1.326-.8,2.276-1.376a2.668,2.668,0,0,1,.25-.15c.175-.1.375-.225.575-.35a15.954,15.954,0,0,1-3.8,15.682ZM51.161,66.009c-1.276,3.126-3.977,11.155-5.6,10.7-1.4-.375-2.251-6.453-.275-12.455A27.806,27.806,0,0,1,49.66,56.23c2.026-2.251,4.227-3,4.777-2.076C55.087,55.354,51.961,64.058,51.161,66.009Zm22.185,10.6c-.55.275-1.05.475-1.276.325-.175-.1.225-.475.225-.475s2.776-2.976,3.877-4.352c.625-.8,1.376-1.725,2.176-2.776v.3c0,3.6-3.451,6-5,6.978Zm17.107-3.9c-.4-.3-.35-1.226,1-4.127a15.464,15.464,0,0,1,3.8-4.9,6.187,6.187,0,0,1,.375,2.151C95.6,70.336,92.4,72.012,90.452,72.712Z" transform="translate(371.071 581.644)" fill="#fff"/>
  </g>
</svg>
