<svg xmlns="http://www.w3.org/2000/svg" xmlns:xlink="http://www.w3.org/1999/xlink" width="595" height="466" viewBox="0 0 595 466">
  <defs>
    <filter id="Path_223" x="28" y="131.749" width="567" height="208.708" filterUnits="userSpaceOnUse">
      <feOffset dy="3" input="SourceAlpha"/>
      <feGaussianBlur stdDeviation="3" result="blur"/>
      <feFlood flood-opacity="0.161"/>
      <feComposite operator="in" in2="blur"/>
      <feComposite in="SourceGraphic"/>
    </filter>
  </defs>
  <g id="sonarqube" transform="translate(-335 -3877)">
    <circle id="Ellipse_34" data-name="Ellipse 34" cx="233" cy="233" r="233" transform="translate(410 3877)" fill="#04a897" opacity="0.56"/>
    <g id="Group_121" data-name="Group 121" transform="translate(0 -117)">
      <g id="Group_120" data-name="Group 120" transform="translate(-6778 5522)">
        <g id="Group_118" data-name="Group 118" transform="translate(151 -584.292)">
          <g transform="matrix(1, 0, 0, 1, 6962, -943.71)" filter="url(#Path_223)">
            <path id="Path_223-2" data-name="Path 223" d="M26.205,0H508.383C530.815,0,549,14.152,549,31.609V159.1c0,17.457-18.185,31.609-40.617,31.609H40.617C18.185,190.708,0,176.556,0,159.1V31.609C0,14.152,3.774,0,26.205,0Z" transform="translate(37 137.75)" fill="#fff"/>
          </g>
        </g>
      </g>
      <g id="_24px_11_" data-name="24px (11)" transform="translate(720.207 4187.207)">
        <path id="Path_226" data-name="Path 226" d="M0,0H80V80H0Z" fill="none"/>
        <path id="Path_227" data-name="Path 227" d="M33.379,2A31.379,31.379,0,1,0,64.757,33.379,31.39,31.39,0,0,0,33.379,2ZM27.1,49.068,11.414,33.379l4.424-4.424L27.1,40.188,50.919,16.371l4.424,4.456Z" transform="translate(6.621 6.621)" fill="#059f0a"/>
      </g>
      <g id="_24px_12_" data-name="24px (12)" transform="translate(816.58 4193.58)">
        <path id="Path_228" data-name="Path 228" d="M33.749,2A31.749,31.749,0,1,0,65.5,33.749,31.72,31.72,0,0,0,33.749,2ZM49.623,45.147l-4.477,4.477-11.4-11.4-11.4,11.4-4.477-4.477,11.4-11.4-11.4-11.4,4.477-4.477,11.4,11.4,11.4-11.4,4.477,4.477-11.4,11.4Z" transform="translate(-0.329 -0.329)" fill="#e40404"/>
        <path id="Path_229" data-name="Path 229" d="M0,0H66.84V66.84H0Z" fill="none"/>
      </g>
      <g id="sonarqube-2" data-name="sonarqube" transform="translate(351.734 4176.871)">
        <g id="Group_127" data-name="Group 127" transform="translate(84.07 32.289)">
          <path id="Path_246" data-name="Path 246" d="M85.466,175.045a14.737,14.737,0,0,0,6.766,2.017c2.38,0,3.36-.874,3.36-2.23s-.772-2.015-3.719-3.048c-5.222-1.851-7.231-4.845-7.184-8,0-4.955,4.034-8.706,10.283-8.706a16.21,16.21,0,0,1,7.133,1.52l-1.393,5.712a11.931,11.931,0,0,0-5.478-1.52c-1.914,0-3,.812-3,2.175,0,1.252.987,1.907,4.085,3.048,4.8,1.741,6.824,4.291,6.871,8.217,0,4.949-3.719,8.6-10.956,8.6a17.184,17.184,0,0,1-8.164-1.851Zm45.378-6.359c0,9.739-6.562,14.2-13.335,14.2-7.392-.006-13.07-5.121-13.07-13.722s5.373-14.088,13.492-14.088C125.679,155.081,130.844,160.682,130.844,168.686Zm-18.3.268c0,4.57,1.809,8,5.169,8,3.057,0,5.014-3.219,5.014-8,0-3.971-1.444-8-5.014-8C113.946,160.952,112.548,165.032,112.548,168.954Zm21.1-4.79c0-3.317-.1-6.146-.208-8.485h6.823l.36,3.64h.157a9.143,9.143,0,0,1,7.8-4.239c5.171,0,9.047,3.586,9.047,11.424v15.786h-7.861V167.538c0-3.429-1.137-5.767-3.98-5.767a4.22,4.22,0,0,0-3.974,3.1,5.853,5.853,0,0,0-.314,2.064v15.347h-7.848Zm42.586,18.121-.461-2.67h-.146a8.9,8.9,0,0,1-7.236,3.269,7.948,7.948,0,0,1-8.165-8.163c0-6.909,5.89-10.234,14.833-10.178v-.379c0-1.418-.728-3.427-4.6-3.427a13.66,13.66,0,0,0-6.974,2.009l-1.456-5.326a19.976,19.976,0,0,1,9.819-2.34c8.424,0,11.112,5.223,11.112,11.48v9.25a43.078,43.078,0,0,0,.365,6.475Zm-.929-12.568c-4.131-.055-7.34.982-7.34,4.19a2.894,2.894,0,0,0,3.1,3.159,4.313,4.313,0,0,0,4.076-3.048,6.211,6.211,0,0,0,.156-1.418Zm11.791-5.283c0-3.916-.1-6.471-.208-8.755h6.771l.262,4.892h.2c1.294-3.861,4.393-5.492,6.824-5.492a8.025,8.025,0,0,1,1.654.1v7.783a10.591,10.591,0,0,0-2.118-.221,5.124,5.124,0,0,0-5.386,4.192,10.69,10.69,0,0,0-.146,1.851v13.5h-7.861ZM254.448,175.1c0,2.719.052,5.115.208,7.185h-4.032l-.261-4.3h-.1a9.368,9.368,0,0,1-8.269,4.9c-3.93,0-8.635-2.285-8.635-11.535V155.948h4.549v14.577c0,5,1.446,8.382,5.583,8.382a6.615,6.615,0,0,0,5.995-4.356,7.437,7.437,0,0,0,.412-2.452V155.948h4.549Zm5.28,7.185c.1-1.8.2-4.466.2-6.807V143.65h4.494v16.544h.1a9.226,9.226,0,0,1,8.529-4.845c6.2,0,10.59,5.444,10.538,13.441,0,9.414-5.634,14.1-11.209,14.1a8.834,8.834,0,0,1-8.373-4.955h-.157l-.2,4.356Zm4.7-10.557a9.4,9.4,0,0,0,.208,1.741,7.086,7.086,0,0,0,6.819,5.6c4.759,0,7.6-4.08,7.6-10.116,0-5.279-2.582-9.792-7.439-9.792a7.337,7.337,0,0,0-6.924,5.87,9.974,9.974,0,0,0-.261,1.962Zm25.384-1.741c.1,6.475,4.028,9.139,8.577,9.139a15.756,15.756,0,0,0,6.922-1.356l.777,3.427a19.425,19.425,0,0,1-8.321,1.632c-7.7,0-12.3-5.334-12.3-13.276s4.444-14.2,11.732-14.2c8.165,0,10.336,7.564,10.336,12.415a19.013,19.013,0,0,1-.146,2.23Zm13.329-3.427c.052-3.048-1.183-7.784-6.3-7.784-4.6,0-6.615,4.466-6.988,7.784Z" transform="translate(-84.07 -143.65)" fill="#1b171b"/>
          <path id="Path_247" data-name="Path 247" d="M928.969,220.429a14.22,14.22,0,1,0-6.091,21.036l5.5,8.935,4.367-2.97-5.5-8.937a14.222,14.222,0,0,0,1.721-18.069m-6.164,16.232a9.962,9.962,0,1,1,2.639-13.838,9.962,9.962,0,0,1-2.639,13.838" transform="translate(-784.687 -203.389)" fill="#1b171b" fill-rule="evenodd"/>
        </g>
        <g id="Group_128" data-name="Group 128" transform="translate(286.168 15.73)">
          <path id="Path_248" data-name="Path 248" d="M1538.053,102.686h-3.372c0-25.583-22.409-46.4-49.951-46.4V53.11C1514.131,53.11,1538.053,75.349,1538.053,102.686Z" transform="translate(-1484.73 -47.381)" fill="#4e9bcd"/>
          <path id="Path_249" data-name="Path 249" d="M1653.6,55.973c-4.051-17.039-17.854-31.266-35.162-36.229l.766-2.7c18.269,5.245,32.842,20.269,37.123,38.281Zm2.593-15.986a51.694,51.694,0,0,0-20.012-22.336l1.168-1.922a53.965,53.965,0,0,1,20.889,23.319Z" transform="translate(-1597.947 -15.73)" fill="#4e9bcd"/>
        </g>
      </g>
    </g>
    <g id="Group_122" data-name="Group 122" transform="translate(297.378 3339.378)">
      <g id="Group_85" data-name="Group 85" transform="translate(38 632)">
        <g id="Group_72" data-name="Group 72">
          <circle id="Ellipse_13" data-name="Ellipse 13" cx="56" cy="56" r="56" transform="translate(-0.378 -0.378)" fill="#0877b9"/>
        </g>
      </g>
      <g id="visual-studio-code-1" transform="translate(60.742 655.51)">
        <path id="Path_95" data-name="Path 95" d="M3.347,251.013s-1.593-1.148.319-2.681l4.453-3.982a1.89,1.89,0,0,1,2.622-.173l41.1,31.114v14.92s-.02,2.343-3.026,2.084Z" transform="translate(-2.725 -228.452)" fill="#fff"/>
        <path id="Path_96" data-name="Path 96" d="M15.888,498.8,5.295,508.43s-1.088.81,0,2.257l4.918,4.473s1.168,1.254,2.894-.172l11.23-8.515Z" transform="translate(-4.673 -466.621)" fill="#fff"/>
        <path id="Path_97" data-name="Path 97" d="M309.148,53.887l19.427-14.834-.126-14.84s-.83-3.239-3.6-1.553L299,46.188Z" transform="translate(-279.336 -21.629)" fill="#fff"/>
        <path id="Path_98" data-name="Path 98" d="M689.071,77.826a2.671,2.671,0,0,0,2.5.777l15.139-7.46a3.193,3.193,0,0,0,1.666-2.96V23.634a2.978,2.978,0,0,0-2-2.635l-13.121-6.325a3.643,3.643,0,0,0-4.745.319s2.416-1.739,3.6,1.553v58.9a2.677,2.677,0,0,1-.259,1.161c-.345.7-1.1,1.347-2.894,1.075Z" transform="translate(-642.985 -13.962)" fill="#fff"/>
      </g>
    </g>
  </g>
</svg>
