<svg xmlns="http://www.w3.org/2000/svg" width="194" height="194" viewBox="0 0 194 194">
  <g id="swagger" transform="translate(-567 -3242)">
    <circle id="Ellipse_13" data-name="Ellipse 13" cx="97" cy="97" r="97" transform="translate(567 3242)" fill="#49a32b"/>
    <path id="Path_102" data-name="Path 102" d="M144.116,114.021c-.224,4.172-3.869,7.637-7.462,7.033H136.6a7.2,7.2,0,0,1-7.213-7.2,7.316,7.316,0,0,1,7.435-7.067C140.8,106.81,144.331,110.173,144.116,114.021ZM80.13,154.454c1.5.044,3,.012,4.732.012v10.873c-10.754,1.818-19.612-1.235-21.786-10.325a60.348,60.348,0,0,1-1.369-10.163c-.231-3.622.169-7.284-.107-10.9C60.835,124,59.546,120.608,50,120.137v-12.38a17.784,17.784,0,0,1,2.076-.356c5.234-.258,7.44-1.863,8.61-7.018a58.8,58.8,0,0,0,.942-8.772c.415-5.692.267-11.477,1.216-17.077,1.37-8.1,6.4-12.032,14.7-12.472,2.363-.127,4.733-.019,7.411-.019V73.156c-1.1.078-2.111.238-3.115.208-6.767-.207-7.117,2.1-7.611,7.7-.308,3.513.117,7.086-.122,10.611a84.483,84.483,0,0,1-1.4,10.447c-.976,5-4.05,8.718-8.31,11.873,8.269,5.381,9.21,13.742,9.747,22.232.289,4.562.157,9.157.62,13.7C75.121,153.448,76.491,154.347,80.13,154.454ZM87.1,106.791h.128a7.16,7.16,0,0,1,7.041,7.278c0,.13,0,.259-.012.388a7.007,7.007,0,0,1-7.4,6.593c-.156,0-.31,0-.466-.007a7.134,7.134,0,0,1,.708-14.251Zm24.636,0c4.325-.033,7.2,2.769,7.218,7.043.024,4.39-2.7,7.2-6.994,7.216-4.37.02-7.245-2.744-7.269-6.993q-.02-.325-.01-.651A6.839,6.839,0,0,1,111.736,106.791Zm51.582-5.415c1.151,4.3,3.39,5.807,7.912,6.012.741.035,1.479.16,2.495.273v12.377a10.47,10.47,0,0,1-1.686.4c-6.061.377-8.823,2.864-9.435,8.94-.391,3.88-.359,7.8-.628,11.7a99.126,99.126,0,0,1-1.164,12.762c-1.547,7.653-6.325,11.471-14.22,11.937-2.54.15-5.1.024-7.84.024V154.736c1.475-.091,2.776-.217,4.081-.248,4.717-.113,6.385-1.633,6.617-6.318.256-5.146.367-10.3.6-15.448.334-7.44,2.371-14.087,9.3-18.728-3.966-2.828-7.151-6.253-7.976-10.871-1-5.6-1.32-11.319-1.857-17-.265-2.838-.252-5.7-.529-8.535-.3-3.061-2.4-4.12-5.187-4.189-1.6-.039-3.2-.007-5.239-.007v-10.8c13.021-2.162,22.016,2.171,22.852,14.629.349,5.232.3,10.488.633,15.719A43.513,43.513,0,0,0,163.318,101.375Z" transform="translate(552 3225)" fill="#fff"/>
  </g>
</svg>
