<svg xmlns="http://www.w3.org/2000/svg" width="24" height="23.875" viewBox="0 0 24 23.875">
  <path id="visualstudiocode" d="M23.15,2.587,18.21.21a1.494,1.494,0,0,0-1.7.29L7.045,9.13,2.925,6a1,1,0,0,0-1.276.057L.327,7.261a1,1,0,0,0,0,1.479L3.9,12,.326,15.26a1,1,0,0,0,0,1.479l1.323,1.2A1,1,0,0,0,2.926,18l4.12-3.128,9.46,8.63a1.492,1.492,0,0,0,1.7.29l4.942-2.377A1.5,1.5,0,0,0,24,20.06V3.939a1.5,1.5,0,0,0-.85-1.352ZM18,17.448,10.826,12,18,6.552Z" transform="translate(0 -0.062)" fill="#04a897"/>
</svg>
