<svg xmlns="http://www.w3.org/2000/svg" width="194" height="194" viewBox="0 0 194 194">
  <g id="xd" transform="translate(-491 -868)">
    <circle id="Ellipse_13" data-name="Ellipse 13" cx="97" cy="97" r="97" transform="translate(491 868)" fill="#2e001f"/>
    <path id="Path_94" data-name="Path 94" d="M500.53,628.326l18.917,36.343c.337.538.136,1.083-.409,1.083H507.281a1.325,1.325,0,0,1-1.42-.875c-4.326-8.917-8.716-17.834-13.243-27.426h-.136c-4.053,9.053-8.515,18.58-12.834,27.5a1.3,1.3,0,0,1-1.219.746H467.293c-.674,0-.746-.538-.4-.947L485.4,629.48l-17.9-35.669a.546.546,0,0,1,.4-.947h11.622c.674,0,.947.136,1.213.746,4.254,8.917,8.58,18.107,12.633,27.089h.136c3.917-8.917,8.243-18.172,12.432-27.024.337-.538.538-.875,1.219-.875h10.876c.538,0,.746.409.409.947Zm22.231,11.012c0-15.74,10.474-28.036,27.089-28.036a29.8,29.8,0,0,1,3.515.136v-17.9a.673.673,0,0,1,.674-.674h10.675c.538,0,.675.2.675.538v62.018a48.249,48.249,0,0,0,.337,6.621c0,.409-.136.538-.538.746a40.216,40.216,0,0,1-17.3,3.917c-14.663.058-25.137-8.989-25.13-27.368Zm30.6-17.29a10.155,10.155,0,0,0-3.917-.674c-8.515,0-14.456,6.55-14.456,17.432,0,12.432,6.083,17.432,13.716,17.432a12.664,12.664,0,0,0,4.663-.746V622.048Z" transform="translate(71.31 335.2)" fill="#ffd9f2"/>
  </g>
</svg>
