<svg xmlns="http://www.w3.org/2000/svg" width="767.3" height="187.6" viewBox="0 0 767.3 187.6">
  <g id="sreyaj" transform="translate(-3.6 -321.6)">
    <path id="j" d="M661,485.4a18.3,18.3,0,0,1-7-14.4,17.714,17.714,0,0,1,17.6-18c4.7,0,7.6,1.3,11.2,4,7.6,5.6,14,8.5,22.5,8.5,14.6,0,23.2-8.5,23.2-28.1V345.3a18.7,18.7,0,1,1,37.4,0v93.9c0,20.1-5.8,35.1-16,45.3-10.4,10.4-25.7,15.8-44.1,15.8C686.6,500.1,671.6,493.6,661,485.4Z" fill="none" stroke="#fff" stroke-width="10"/>
    <g id="a">
      <path id="Path_5" data-name="Path 5" d="M633.3,494.4h0a18.419,18.419,0,0,0,7.9-24.8L572.8,337.7a18.419,18.419,0,0,0-24.8-7.9h0a18.419,18.419,0,0,0-7.9,24.8l68.4,131.9A18.419,18.419,0,0,0,633.3,494.4Z" fill="none" stroke="#fff" stroke-width="10"/>
    </g>
    <g id="_" data-name="/">
      <path id="Path_9" data-name="Path 9" d="M479.5,494.4h0a18.419,18.419,0,0,1-7.9-24.8L540,337.7a18.419,18.419,0,0,1,24.8-7.9h0a18.419,18.419,0,0,1,7.9,24.8L504.3,486.5A18.566,18.566,0,0,1,479.5,494.4Z" fill="none" stroke="#04a897" stroke-width="10"/>
    </g>
    <g id="y">
      <path id="Path_6" data-name="Path 6" d="M496.1,402.8h0A18.419,18.419,0,0,0,504,378l-21.4-41a18.419,18.419,0,0,0-24.8-7.9h0a18.419,18.419,0,0,0-7.9,24.8l21.2,41A18.622,18.622,0,0,0,496.1,402.8Z" fill="none" stroke="#fff" stroke-width="10"/>
    </g>
    <g id="E">
      <path id="Path_4" data-name="Path 4" d="M420.5,360.2H323.4A16.26,16.26,0,0,1,307.2,344v-.5a16.26,16.26,0,0,1,16.2-16.2h97.1a16.26,16.26,0,0,1,16.2,16.2v.5A16.133,16.133,0,0,1,420.5,360.2Z" fill="none" stroke="#04a897" stroke-width="10"/>
      <path id="Path_7" data-name="Path 7" d="M420.5,497.1H323.4a16.26,16.26,0,0,1-16.2-16.2v-.5a16.26,16.26,0,0,1,16.2-16.2h97.1a16.26,16.26,0,0,1,16.2,16.2v.5A16.133,16.133,0,0,1,420.5,497.1Z" fill="none" stroke="#04a897" stroke-width="10"/>
      <path id="Path_8" data-name="Path 8" d="M364.7,428.5h-41a16.474,16.474,0,0,1-16.4-16.4h0a16.474,16.474,0,0,1,16.4-16.4h41a16.474,16.474,0,0,1,16.4,16.4h0A16.346,16.346,0,0,1,364.7,428.5Z" fill="none" stroke="#04a897" stroke-width="10"/>
    </g>
    <path id="r" d="M153.2,346.5a18.608,18.608,0,0,1,18.7-18.7h59c21.6,0,38.3,6.1,49.5,17.3,9.5,9.5,14.6,22.8,14.6,38.9v.5c0,26.6-13.3,43.2-34,51.6l25.9,31.5c3.6,4.7,6.1,8.5,6.1,14.4,0,10.4-8.8,17.3-17.6,17.3-8.5,0-14-4.1-18.3-9.7l-36.7-46.4H190.5v37.1a18.7,18.7,0,1,1-37.4,0V346.5Zm75.2,63.7c18.2,0,28.6-9.7,28.6-23.9v-.5c0-16-11.2-24.3-29.3-24.3H190.6v48.8l37.8-.1Z" fill="none" stroke="#fff" stroke-width="10"/>
    <path id="s" d="M15.6,479.6a17.508,17.508,0,0,1-7-14A17.2,17.2,0,0,1,26,448.3a16.678,16.678,0,0,1,10.6,3.4C49.4,461.2,63.6,467,80,467c15.3,0,24.5-6.1,24.5-16v-.5c0-9.5-5.8-14.4-34.2-21.6C36.1,420.1,14,410.7,14,377.1v-.5c0-30.8,24.6-51.1,59.4-51.1,20.7,0,38.5,5.4,53.8,15.1a17.316,17.316,0,0,1-9.1,32.1,17.508,17.508,0,0,1-9.5-2.7c-12.4-7.2-23.9-11.3-35.6-11.3-14.4,0-21.8,6.5-21.8,14.8v.5c0,11.2,7.2,14.8,36.7,22.3,34.4,9,53.8,21.4,53.8,50.9v.5c0,33.6-25.7,52.5-62.2,52.5A112.969,112.969,0,0,1,15.6,479.6Z" transform="translate(0 4)" fill="none" stroke="#fff" stroke-width="10"/>
  </g>
</svg>
